<?xml version="1.0" encoding="utf-8"?>
<!-- Generator: Adobe Illustrator 16.0.0, SVG Export Plug-In . SVG Version: 6.00 Build 0)  -->
<!DOCTYPE svg PUBLIC "-//W3C//DTD SVG 1.1//EN" "http://www.w3.org/Graphics/SVG/1.1/DTD/svg11.dtd">
<svg version="1.1" id="Layer_1" xmlns="http://www.w3.org/2000/svg" xmlns:xlink="http://www.w3.org/1999/xlink" x="0px" y="0px"
	 width="100.13px" height="99.86px" viewBox="568.858 263.71 100.13 99.86" enable-background="new 568.858 263.71 100.13 99.86"
	 xml:space="preserve">
<g>
	<path fill="#00F472" d="M668.988,313.648c-0.395,1.207-0.785,2.434-1.195,3.652c-2.334,6.959-4.66,13.922-7.033,20.869
		c-0.232,0.688-0.645,1.396-1.17,1.891c-4.869,4.592-9.77,9.15-14.701,13.678c-0.607,0.561-1.398,0.994-2.18,1.287
		c-7.537,2.822-15.086,5.623-22.654,8.363c-0.676,0.246-1.596,0.242-2.273-0.002c-7.781-2.789-15.539-5.639-23.291-8.502
		c-0.537-0.197-1.041-0.57-1.465-0.963c-5.033-4.654-10.061-9.316-15.055-14.012c-0.445-0.42-0.768-1.048-0.969-1.64
		c-2.697-7.916-5.371-15.841-8.012-23.776c-0.17-0.513-0.178-1.18-0.008-1.689c2.518-7.529,5.102-15.037,7.609-22.569
		c0.523-1.574,1.355-2.833,2.58-3.955c4.5-4.118,8.922-8.321,13.412-12.451c0.654-0.602,1.461-1.123,2.291-1.434
		c7.682-2.883,15.379-5.721,23.086-8.534c0.498-0.182,1.172-0.208,1.662-0.029c7.609,2.768,15.238,5.489,22.77,8.453
		c1.775,0.698,3.334,2.117,4.785,3.434c4.156,3.775,8.221,7.649,12.275,11.534c0.592,0.565,1.088,1.343,1.352,2.117
		c2.635,7.71,5.209,15.441,7.803,23.167C668.726,312.889,668.849,313.242,668.988,313.648z M618.859,311.514
		c4.521-7.318,8.859-14.343,13.309-21.542c-8.998,0-17.686,0-26.625,0C610.003,297.189,614.33,304.187,618.859,311.514z
		 M618.857,315.824c-4.516,7.307-8.855,14.334-13.268,21.475c8.951,0,17.639,0,26.539,0
		C627.679,330.098,623.353,323.101,618.857,315.824z M634.05,336.089c2.961-7.33,5.73-14.188,8.561-21.19
		c-7.307,0-14.316,0-21.656,0C625.341,321.996,629.574,328.846,634.05,336.089z M595.078,314.85c2.881,7.11,5.66,13.978,8.6,21.229
		c4.473-7.244,8.713-14.11,13.107-21.229C609.396,314.85,602.417,314.85,595.078,314.85z M595.123,312.391
		c7.305,0,14.328,0,21.617,0c-4.367-7.06-8.615-13.923-13.074-21.125C600.712,298.568,597.943,305.416,595.123,312.391z
		 M634.046,291.244c-4.486,7.265-8.723,14.128-13.059,21.154c7.354,0,14.342,0,21.604,0
		C639.755,305.376,636.99,298.529,634.046,291.244z M601.222,291.26c-0.098-0.102-0.197-0.204-0.297-0.306
		c-6.627,2.588-13.256,5.177-20.135,7.862c4.133,4.334,8.076,8.467,12.201,12.791C595.835,304.58,598.529,297.92,601.222,291.26z
		 M580.787,328.53c6.934,2.7,13.592,5.294,20.637,8.036c-2.895-7.146-5.607-13.852-8.436-20.832
		C588.88,320.042,584.957,324.158,580.787,328.53z M656.925,298.806c-6.988-2.72-13.607-5.297-20.635-8.033
		c2.904,7.166,5.613,13.848,8.445,20.831C648.89,307.242,652.808,303.126,656.925,298.806z M636.292,336.58
		c7.104-2.774,13.744-5.369,20.629-8.058c-4.143-4.345-8.086-8.481-12.197-12.792C641.882,322.759,639.171,329.46,636.292,336.58z
		 M631.408,339.832c-8.539,0-16.646,0-24.902,0c0.184,0.338,0.246,0.547,0.381,0.688c3.695,3.862,7.408,7.706,11.092,11.581
		c0.725,0.762,1.215,0.566,1.854-0.109c3.01-3.174,6.057-6.311,9.084-9.467C629.683,341.725,630.423,340.897,631.408,339.832z
		 M606.304,287.436c8.523,0,16.629,0,25.105,0c-4.305-4.481-8.363-8.708-12.553-13.07
		C614.662,278.734,610.603,282.958,606.304,287.436z M643.525,351.421c4.219-6.746,8.236-13.172,12.256-19.596
		c-0.105-0.102-0.211-0.199-0.316-0.3c-6.438,2.513-12.873,5.022-19.525,7.618C638.47,343.24,640.892,347.162,643.525,351.421z
		 M601.789,339.144c-6.711-2.611-13.16-5.124-19.607-7.637c-0.074,0.123-0.152,0.246-0.229,0.367
		c4.02,6.416,8.039,12.834,12.234,19.533C596.777,347.23,599.201,343.318,601.789,339.144z M655.505,295.828
		c0.098-0.098,0.195-0.195,0.293-0.292c-4.043-6.455-8.084-12.909-12.283-19.617c-2.631,4.271-5.062,8.224-7.564,12.284
		C642.65,290.815,649.078,293.322,655.505,295.828z M581.99,295.42c0.113,0.119,0.229,0.237,0.346,0.356
		c6.416-2.502,12.832-5.005,19.441-7.583c-2.557-4.133-4.979-8.053-7.584-12.269C590.017,282.597,586.003,289.008,581.99,295.42z
		 M591.812,313.675c-3.895-4.082-7.693-8.062-11.492-12.045c-0.117,0.074-0.234,0.146-0.35,0.219c0,7.941,0,15.885,0,24.242
		C584.054,321.81,587.896,317.779,591.812,313.675z M657.761,301.637c-0.379,0.155-0.564,0.176-0.664,0.278
		c-3.502,3.668-6.98,7.357-10.5,11.008c-0.746,0.773-0.258,1.213,0.246,1.74c3.354,3.514,6.699,7.032,10.055,10.543
		c0.201,0.209,0.469,0.357,0.863,0.654C657.761,317.695,657.761,309.755,657.761,301.637z M615.464,353.355
		c0.07-0.133,0.145-0.266,0.213-0.4c-3.961-4.125-7.922-8.252-12.025-12.529c-2.5,4.061-4.875,7.914-7.43,12.062
		C602.927,352.789,609.195,353.072,615.464,353.355z M634.062,340.421c-4.111,4.293-8.082,8.439-12.053,12.584
		c0.088,0.119,0.176,0.24,0.266,0.359c6.301-0.293,12.602-0.586,19.227-0.893C638.947,348.333,636.607,344.544,634.062,340.421z
		 M615.623,274.443c-0.043-0.136-0.088-0.271-0.133-0.407c-6.303,0.255-12.605,0.511-19.309,0.783
		c2.605,4.207,4.982,8.047,7.48,12.078C607.8,282.587,611.712,278.515,615.623,274.443z M634.068,286.905
		c2.521-4.092,4.896-7.946,7.457-12.104c-6.707-0.258-12.988-0.5-19.27-0.742c-0.029,0.157-0.059,0.314-0.088,0.471
		C626.076,278.593,629.982,282.656,634.068,286.905z M660.095,322.82c0.111,0.049,0.223,0.096,0.332,0.145
		c1.182-1.791,2.193-3.725,3.578-5.338c2.281-2.658,2.734-5.11,0.068-7.748c-0.562-0.555-0.896-1.34-1.342-2.014
		c-0.779-1.178-1.566-2.35-2.35-3.523c-0.096,0.046-0.191,0.091-0.289,0.136C660.095,310.591,660.095,316.707,660.095,322.82z
		 M577.193,322.85c0.09-0.062,0.18-0.122,0.27-0.183c0-6.054,0-12.104,0-18.582c-2.115,3.234-4.006,6.104-5.855,9
		c-0.164,0.258-0.221,0.775-0.068,1.013C573.394,317.033,575.3,319.938,577.193,322.85z M620.062,271.572
		c4.688,0.223,9.184,0.438,13.68,0.651c0.021-0.146,0.045-0.292,0.066-0.437c-4.545-1.789-9.092-3.578-13.746-5.41
		C620.062,268.243,620.062,269.838,620.062,271.572z M633.595,355.628c-0.02-0.155-0.043-0.312-0.064-0.467
		c-4.477,0.178-8.949,0.355-13.479,0.537c0,1.789,0,3.389,0,5.273C624.671,359.148,629.134,357.389,633.595,355.628z
		 M617.632,355.682c-4.568-0.17-9.012-0.339-13.455-0.504c-0.021,0.147-0.045,0.295-0.066,0.442
		c4.451,1.76,8.906,3.521,13.521,5.344C617.632,359.105,617.632,357.512,617.632,355.682z M604.007,271.757
		c0.039,0.16,0.078,0.321,0.117,0.481c4.49-0.226,8.982-0.453,13.461-0.679c0-1.78,0-3.401,0-5.173
		C612.949,268.22,608.478,269.988,604.007,271.757z M650.935,282.651c-0.121,0.09-0.242,0.179-0.363,0.269
		c2.217,3.524,4.434,7.048,6.648,10.573c0.494-0.959,0.693-1.753,0.688-2.545c-0.006-0.801,0.076-1.895-0.385-2.351
		C655.423,286.517,653.146,284.617,650.935,282.651z M657.619,333.988c-0.156-0.02-0.312-0.039-0.471-0.059
		c-2.195,3.516-4.393,7.031-6.59,10.545c0.1,0.089,0.195,0.177,0.293,0.264c2.309-2.037,4.619-4.07,6.914-6.125
		c0.18-0.16,0.338-0.479,0.316-0.705C657.96,336.599,657.781,335.294,657.619,333.988z M580.353,293.753
		c2.375-3.801,4.572-7.317,6.77-10.833c-0.117-0.085-0.234-0.171-0.354-0.256c-1.443,1.281-2.758,2.766-4.361,3.797
		C579.671,288.22,579.187,290.487,580.353,293.753z M586.847,344.707c0.1-0.088,0.197-0.176,0.295-0.264
		c-2.215-3.533-4.43-7.066-6.645-10.602c-0.49,1.068-0.68,1.966-0.717,2.867c-0.027,0.658-0.105,1.588,0.27,1.944
		C582.248,340.746,584.57,342.705,586.847,344.707z M660.619,331.5c0.629-1.867,1.258-3.732,1.887-5.6
		C661.115,327.525,659.55,329.083,660.619,331.5z M575.175,325.884c0.654,1.887,1.311,3.771,2.09,6.015
		C578.13,329.087,576.634,327.473,575.175,325.884z M662.511,301.359c-0.631-1.83-1.262-3.661-2.029-5.885
		C659.509,298.31,661.128,299.813,662.511,301.359z M575.183,301.482c1.377-1.609,2.963-3.143,2.061-6.02
		C576.462,297.742,575.822,299.613,575.183,301.482z"/>
	<path fill="#00F472" d="M660.619,331.5c-1.068-2.416,0.496-3.975,1.887-5.6"/>
</g>
</svg>
