<?xml version="1.0" encoding="utf-8"?>
<!-- Generator: Adobe Illustrator 16.0.0, SVG Export Plug-In . SVG Version: 6.00 Build 0)  -->
<!DOCTYPE svg PUBLIC "-//W3C//DTD SVG 1.0//EN" "http://www.w3.org/TR/2001/REC-SVG-20010904/DTD/svg10.dtd">
<svg version="1.0" id="Layer_1" xmlns="http://www.w3.org/2000/svg" xmlns:xlink="http://www.w3.org/1999/xlink" x="0px" y="0px"
	 width="32px" height="32px" viewBox="0 0 32 32" enable-background="new 0 0 32 32" xml:space="preserve">
<g>
	<path fill="#6D6C6C" d="M30.111,16.663c0,7.93-6.428,14.357-14.357,14.357c-7.929,0-14.357-6.428-14.357-14.357
		c0,0,5.828,1.962,15.231,2.248C26.234,19.203,30.111,16.663,30.111,16.663z"/>
	<path fill="#6D6C6C" d="M1.397,15.504c0-7.929,6.429-14.357,14.357-14.357c7.929,0,14.357,6.428,14.357,14.357
		C28.688,16,26.964,17.459,17.772,17.48C9.555,17.5,1.397,15.504,1.397,15.504z"/>
	<polygon fill="#D89533" points="16.872,0 23.965,5.07 14.419,6.159 	"/>
	<path fill="none" stroke="#D89533" stroke-width="3" stroke-miterlimit="10" d="M18.32,3.365"/>
	<path fill="none" stroke="#D89533" stroke-width="3" stroke-miterlimit="10" d="M18.32,19.163"/>
	<path fill="none" stroke="#D89533" stroke-width="3" stroke-miterlimit="10" d="M18.32,4.176"/>
	<path fill="none" stroke="#D89533" stroke-width="3" stroke-miterlimit="10" d="M18.32,19.974"/>
	<path fill="none" stroke="#D89533" stroke-width="3" stroke-miterlimit="10" d="M17.541,2.403c0,0,2.1,4.389,2.883,7.769
		c0.771,3.326,1.59,8.691-0.258,18.304"/>
</g>
<polygon fill="#D89533" points="19.393,32 15.754,26.562 24.687,26.235 "/>
<path fill="#6D6C6C" d="M16.423,15.504"/>
<g>
</g>
<g>
</g>
<g>
</g>
<g>
</g>
<g>
</g>
<g>
</g>
</svg>
