<?xml version="1.0" encoding="utf-8"?>
<!-- Generator: Adobe Illustrator 16.0.0, SVG Export Plug-In . SVG Version: 6.00 Build 0)  -->
<!DOCTYPE svg PUBLIC "-//W3C//DTD SVG 1.1//EN" "http://www.w3.org/Graphics/SVG/1.1/DTD/svg11.dtd">
<svg version="1.1" id="Layer_1" xmlns="http://www.w3.org/2000/svg" xmlns:xlink="http://www.w3.org/1999/xlink" x="0px" y="0px"
	 width="32px" height="32px" viewBox="0 0 32 32" enable-background="new 0 0 32 32" xml:space="preserve">
<g>
	<path fill="#6D6C6C" d="M30.111,16.663c0,7.93-6.428,14.356-14.357,14.356c-7.929,0-14.357-6.428-14.357-14.356
		c0,0,5.828,1.962,15.231,2.248C26.234,19.203,30.111,16.663,30.111,16.663z"/>
	<path fill="#6D6C6C" d="M1.397,15.504c0-7.929,6.429-14.357,14.357-14.357c7.93,0,14.357,6.428,14.357,14.357
		c-1.424,0.496-3.147,1.955-12.34,1.977C9.555,17.5,1.397,15.504,1.397,15.504z"/>
	<path fill="none" stroke="#D89533" stroke-width="3" stroke-miterlimit="10" d="M18.32,19.163"/>
	<path fill="none" stroke="#D89533" stroke-width="3" stroke-miterlimit="10" d="M18.32,4.176"/>
	<path fill="none" stroke="#D89533" stroke-width="3" stroke-miterlimit="10" d="M18.32,19.975"/>
</g>
<path fill="#6D6C6C" d="M16.423,15.504"/>
<polygon fill="#D89533" points="22.395,9.71 30.551,13.228 19.094,16.556 "/>
<g>
	<path fill="none" stroke="#6D6C6C" stroke-width="3" stroke-miterlimit="10" d="M19.549,8.312"/>
	<path fill="none" stroke="#6D6C6C" stroke-width="3" stroke-miterlimit="10" d="M-3.323,27.844"/>
	<path fill="none" stroke="#6D6C6C" stroke-width="3" stroke-miterlimit="10" d="M19.127,9.312"/>
	<path fill="none" stroke="#6D6C6C" stroke-width="3" stroke-miterlimit="10" d="M-2.05,27.438"/>
</g>
<path fill="none" stroke="#D89533" stroke-width="3" stroke-miterlimit="10" d="M24.439,13.152
	c0.697,2.353,3.734,14.216-9.177,13.865C1.554,26.646,7.101,12.691,7.101,12.691"/>
<polygon fill="#D89533" points="9.119,9.545 12.091,16.721 1,12.637 "/>
</svg>
