<?xml version="1.0" encoding="utf-8"?>
<!-- Generator: Adobe Illustrator 16.0.0, SVG Export Plug-In . SVG Version: 6.00 Build 0)  -->
<!DOCTYPE svg PUBLIC "-//W3C//DTD SVG 1.0//EN" "http://www.w3.org/TR/2001/REC-SVG-20010904/DTD/svg10.dtd">
<svg version="1.0" id="Layer_1" xmlns="http://www.w3.org/2000/svg" xmlns:xlink="http://www.w3.org/1999/xlink" x="0px" y="0px"
	 width="32px" height="32px" viewBox="0 0 32 32" enable-background="new 0 0 32 32" xml:space="preserve">
<g>
	<path fill="#6D6C6C" d="M29.957,16.441c0,7.93-6.428,14.358-14.357,14.358c-7.929,0-14.357-6.428-14.357-14.358
		c0,0,5.828,1.961,15.231,2.249C26.08,18.98,29.957,16.441,29.957,16.441z"/>
	<path fill="#6D6C6C" d="M1.242,15.282c0-7.929,6.429-14.357,14.357-14.357c7.93,0,14.357,6.428,14.357,14.357
		c-1.424,0.496-3.148,1.955-12.34,1.976C9.4,17.277,1.242,15.282,1.242,15.282z"/>
	<polygon fill="#D89533" points="31.305,9.651 27.751,14.603 26.235,7.709 	"/>
	<path fill="none" stroke="#D89533" stroke-width="3" stroke-miterlimit="10" d="M18.166,3.143"/>
	<path fill="none" stroke="#D89533" stroke-width="3" stroke-miterlimit="10" d="M18.166,18.941"/>
	<path fill="none" stroke="#D89533" stroke-width="3" stroke-miterlimit="10" d="M18.166,3.954"/>
	<path fill="none" stroke="#D89533" stroke-width="3" stroke-miterlimit="10" d="M18.166,19.752"/>
	<path fill="none" stroke="#D89533" stroke-width="3" stroke-miterlimit="10" d="M28.402,11.185c0,0-3.594,1.004-7.032,1.472
		c-3.383,0.46-8.751,0.936-18.152-1.792"/>
</g>
<polygon fill="#D89533" points="0.605,9.523 5.589,7.342 4.036,14.333 "/>
<path fill="#6D6C6C" d="M16.423,15.504"/>
<g>
</g>
<g>
</g>
<g>
</g>
<g>
</g>
<g>
</g>
<g>
</g>
</svg>
